<svg viewBox="0 0 100 100" fill="none" xmlns="http://www.w3.org/2000/svg">
  <rect width="100" height="100" rx="16" fill="#0c0c0c"/>
  <path d="M50 30 C42 30 30 32 26 38 C20 44 20 56 26 62 C32 68 44 70 50 70 C56 70 68 68 74 62 C80 56 80 44 74 38 C70 32 58 30 50 30Z M50 40 C44 38 36 40 32 44 C28 48 28 52 32 56 C36 60 44 62 50 60 C56 62 64 60 68 56 C72 52 72 48 68 44 C64 40 56 38 50 40Z M50 47 C47 45 43 46 41 49 C39 51 40 54 43 55 C46 57 54 57 57 55 C60 54 61 51 59 49 C57 46 53 45 50 47Z" fill="#5f9e4f"/>
  <rect x="46" y="14" width="8" height="10" rx="2" fill="#5f9e4f"/>
  <rect x="46" y="76" width="8" height="10" rx="2" fill="#5f9e4f"/>
  <rect x="14" y="46" width="10" height="8" rx="2" fill="#5f9e4f"/>
  <rect x="76" y="46" width="10" height="8" rx="2" fill="#5f9e4f"/>
</svg>
